<svg width="100" height="100" viewBox="0 0 100 100" fill="none" xmlns="http://www.w3.org/2000/svg">
<g clip-path="url(#clip0)">
<path d="M71.0927 22.134L59.8428 10.8842C57.359 12.4173 55.9745 13.7446 54.1294 15.5817L65.8875 27.3392L71.0927 22.134Z" fill="#F8F8F8"/>
<path d="M70.02 31.4866L75.2242 26.2823L80.4286 31.4867L75.2244 36.691L70.02 31.4866Z" fill="#F8F8F8"/>
<path d="M71.0923 40.8315L65.8875 35.6263L28.6337 72.8801C30.5532 74.8 32.2815 76.5291 33.8375 78.0861C36.46 75.4634 60.2302 51.693 71.0923 40.8315V40.8315Z" fill="#F8F8F8"/>
<path d="M98.7181 41.4726C100.817 34.9747 100.243 28.2233 97.6916 22.5203L88.7285 31.4832L98.7181 41.4726Z" fill="#F8F8F8"/>
<path d="M79.3798 40.8315L91.3957 52.8484C92.9972 51.2469 94.4579 49.7976 96.0997 47.1411L84.5849 35.6263L79.3798 40.8315Z" fill="#F8F8F8"/>
<path d="M84.5849 27.3392L94.5966 17.3281C93.0834 15.3508 91.3482 13.6416 89.3541 12.1597L79.3798 22.1338L84.5849 27.3392Z" fill="#F8F8F8"/>
<path d="M75.2358 44.975C73.4233 46.7874 39.4595 80.7509 37.9793 82.2311C45.1702 89.4285 46.2906 90.5508 47.1543 91.413C47.9759 92.2328 48.589 92.9823 49.8835 93.0313C50.43 93.0636 50.8869 92.9524 51.3073 92.7239C52.0093 92.3739 49.5212 94.7247 87.2521 56.9919L75.2358 44.975Z" fill="#F8F8F8"/>
<path d="M7.71244 51.9547C14.3365 58.5786 19.8684 64.1121 24.4905 68.736L61.744 31.4826C42.7565 12.4962 44.2707 13.9468 43.0766 12.9686C34.1078 5.57549 21.5114 5.17038 12.5691 10.8607C11.5726 11.476 11.0264 12.6552 11.2225 13.8325L12.0576 18.8392L6.97859 17.9923C5.75269 17.7868 4.55883 18.3929 4.01523 19.3246C-2.42677 29.5867 -1.06239 43.1756 7.71244 51.9547V51.9547Z" fill="#F8F8F8"/>
<path d="M75.2362 17.9906L84.0986 9.12824C78.1418 6.55457 71.5161 6.31412 65.5068 8.26137L75.2362 17.9906Z" fill="#F8F8F8"/>
</g>
<defs>
<clipPath id="clip0">
<rect width="100" height="100" fill="white"/>
</clipPath>
</defs>
</svg>
