<svg width="90" height="90" viewBox="0 0 90 90" fill="none" xmlns="http://www.w3.org/2000/svg">
<path d="M58.1836 74.1797H50.7829C49.3822 75.3291 47.9485 76.4518 46.4392 77.4344L45 78.3717L43.5608 77.4344C42.0639 76.46 40.6432 75.3271 39.2425 74.1797H31.8164V81.7438C35.479 84.8618 39.4835 87.2411 43.8203 89.4102L45 90L46.1797 89.4102C50.5165 87.2411 54.521 84.8618 58.1836 81.7438V74.1797Z" fill="#F8F8F8"/>
<path d="M22.8145 90L6.99417 74.1797H0L5.27344 82.0898L0 90H22.8145Z" fill="#F8F8F8"/>
<path d="M26.543 86.2715V74.1797H14.4511L26.543 86.2715Z" fill="#F8F8F8"/>
<path d="M79.2773 10.5469H76.6406C56.8831 10.5469 47.5392 1.22772 45 0C42.5336 1.1927 33.1327 10.5469 13.3594 10.5469H10.7227V35.8175C10.7227 41.5757 11.5885 47.5948 13.2097 53.0859H24.2777C22.3139 47.6896 21.2695 41.6739 21.2695 35.8175V20.6172L23.4661 20.2437C35.9933 18.1192 44.1671 12.5251 45 12.1255C45.9222 12.5677 53.7794 18.0801 66.5339 20.2437L68.7305 20.6172V35.8175C68.7305 41.6739 67.6861 47.6896 65.723 53.0859H76.7903C78.4115 47.5948 79.2773 41.5757 79.2773 35.8175V10.5469Z" fill="#F8F8F8"/>
<path d="M63.457 35.8176V25.0331C56.9888 23.7072 50.796 21.4186 45 18.2126C39.204 21.4179 33.0112 23.7072 26.543 25.0331V35.8176C26.543 41.711 27.7219 47.7336 29.9419 53.086H60.0581C62.2781 47.7336 63.457 41.711 63.457 35.8176ZM42.3633 48.447L32.5889 38.6726L36.3174 34.9441L42.3633 40.9901L53.6826 29.6707L57.4111 33.3992L42.3633 48.447Z" fill="#F8F8F8"/>
<path d="M10.7227 58.3594H79.2773V68.9062H10.7227V58.3594Z" fill="#F8F8F8"/>
<path d="M83.0058 74.1797L67.1855 90H90L84.5508 82.0898L90 74.1797H83.0058Z" fill="#F8F8F8"/>
<path d="M75.5489 74.1797H63.457V86.2715L75.5489 74.1797Z" fill="#F8F8F8"/>
</svg>
