<svg width="90" height="90" viewBox="0 0 90 90" fill="none" xmlns="http://www.w3.org/2000/svg">
<path d="M10.7227 21.0938H2.63672C1.17932 21.0938 0 22.2731 0 23.7305C0 25.1879 1.17932 26.3672 2.63672 26.3672H10.7227C12.1801 26.3672 13.3594 25.1879 13.3594 23.7305C13.3594 22.2731 12.1801 21.0938 10.7227 21.0938Z" fill="#F8F8F8"/>
<path d="M87.3633 21.0938H79.2773C77.8199 21.0938 76.6406 22.2731 76.6406 23.7305C76.6406 25.1879 77.8199 26.3672 79.2773 26.3672H87.3633C88.8207 26.3672 90 25.1879 90 23.7305C90 22.2731 88.8207 21.0938 87.3633 21.0938Z" fill="#F8F8F8"/>
<path d="M12.6307 34.5529C12.1336 33.1855 10.6119 32.4774 9.25238 32.977L1.81859 35.6833C0.448731 36.1803 -0.256855 37.6943 0.242715 39.0617C0.742637 40.4382 2.26209 41.1338 3.62106 40.6375L11.0548 37.9312C12.4247 37.4343 13.1303 35.9203 12.6307 34.5529Z" fill="#F8F8F8"/>
<path d="M89.7573 8.39914C89.2603 7.02928 87.7437 6.32633 86.3789 6.82327L78.9451 9.52959C77.5753 10.0265 76.8697 11.5405 77.3692 12.9079C77.8692 14.2846 79.3888 14.9802 80.7476 14.4838L88.1814 11.7775C89.5512 11.2805 90.2568 9.76655 89.7573 8.39914Z" fill="#F8F8F8"/>
<path d="M11.0548 9.52983L3.62106 6.8235C2.25893 6.32903 0.739649 7.02952 0.242715 8.39938C-0.256855 9.76678 0.448731 11.2808 1.81859 11.7777L9.25238 14.484C10.6113 14.9803 12.1308 14.2849 12.6307 12.9082C13.1303 11.5409 12.4247 10.0268 11.0548 9.52983Z" fill="#F8F8F8"/>
<path d="M88.1814 35.6832L80.7476 32.9769C79.3881 32.48 77.8688 33.1856 77.3692 34.5528C76.8697 35.92 77.5753 37.4342 78.9451 37.9311L86.3789 40.6375C87.7379 41.1337 89.2573 40.4383 89.7573 39.0616C90.2568 37.6942 89.5512 36.1802 88.1814 35.6832Z" fill="#F8F8F8"/>
<path d="M66.0938 58.0078H26.543V74.0039H71.3672C72.8234 74.0039 74.0039 72.8234 74.0039 71.3672V65.918C74.0039 61.5493 70.4624 58.0078 66.0938 58.0078Z" fill="#F8F8F8"/>
<path d="M26.543 79.2773V87.3633C26.543 88.8207 27.7223 90 29.1797 90H66.0938C67.5512 90 68.7305 88.8207 68.7305 87.3633V79.2773H26.543Z" fill="#F8F8F8"/>
<path d="M70.0488 10.5469C67.8645 10.5469 66.0937 12.3175 66.0937 14.502C66.0937 18.1306 66.0937 20.552 66.0937 23.7305C66.0937 25.1866 64.9132 26.3672 63.457 26.3672C62.0008 26.3672 60.8203 25.1866 60.8203 23.7305C60.8203 15.7526 60.8203 17.4902 60.8203 9.22852C60.8203 7.04408 59.0495 5.27344 56.8652 5.27344C54.681 5.27344 52.9101 7.04408 52.9101 9.22852C52.9101 17.4101 52.9101 9.23977 52.9101 23.7305C52.9101 25.1866 51.7296 26.3672 50.2734 26.3672C48.8172 26.3672 47.6367 25.1866 47.6367 23.7305C47.6367 16.4428 47.6367 11.5462 47.6367 3.95508C47.6367 1.77064 45.8659 0 43.6816 0C41.4974 0 39.7265 1.77064 39.7265 3.95508C39.7265 13.1089 39.7265 14.3408 39.7265 23.7305C39.7265 25.1866 38.546 26.3672 37.0898 26.3672C35.6336 26.3672 34.4531 25.1866 34.4531 23.7305C34.4531 16.6655 34.4531 10.973 34.4531 3.95508C34.4531 1.77064 32.6823 0 30.498 0C28.3138 0 26.5429 1.77064 26.5429 3.95508V9.68432L18.6328 20.4706C16.7866 24.1631 16.7866 28.5713 18.4937 31.9264L25.5092 52.7344H66.0937C67.2258 52.7344 68.3063 52.9221 69.3552 53.1918L73.9241 34.916C73.9782 34.7073 74.0039 34.4936 74.0039 34.2773C74.0039 30.0059 74.0039 18.7734 74.0039 14.502C74.0039 12.3175 72.2331 10.5469 70.0488 10.5469Z" fill="#F8F8F8"/>
</svg>
