<svg width="40" height="40" viewBox="0 0 40 40" fill="none" xmlns="http://www.w3.org/2000/svg">
<rect width="40" height="40" rx="20" fill="#F4837D"/>
<path d="M25.4688 8.4375H14.5312C11.1658 8.4375 8.4375 11.1658 8.4375 14.5312V25.4688C8.4375 28.8342 11.1658 31.5625 14.5312 31.5625H25.4688C28.8342 31.5625 31.5625 28.8342 31.5625 25.4688V14.5312C31.5625 11.1658 28.8342 8.4375 25.4688 8.4375Z" stroke="white" stroke-width="2"/>
<path d="M20 25.3906C22.9772 25.3906 25.3906 22.9772 25.3906 20C25.3906 17.0228 22.9772 14.6094 20 14.6094C17.0228 14.6094 14.6094 17.0228 14.6094 20C14.6094 22.9772 17.0228 25.3906 20 25.3906Z" stroke="white" stroke-width="2"/>
<path d="M26.7969 14.6875C27.6167 14.6875 28.2812 14.0229 28.2812 13.2031C28.2812 12.3833 27.6167 11.7188 26.7969 11.7188C25.9771 11.7188 25.3125 12.3833 25.3125 13.2031C25.3125 14.0229 25.9771 14.6875 26.7969 14.6875Z" fill="white"/>
</svg>
