<svg width="40" height="40" viewBox="0 0 40 40" fill="none" xmlns="http://www.w3.org/2000/svg">
<path d="M39.9883 0H0.0117188C0.00524666 0 0 0.00524666 0 0.0117188V39.9883C0 39.9948 0.00524666 40 0.0117188 40H39.9883C39.9948 40 40 39.9948 40 39.9883V0.0117188C40 0.00524666 39.9948 0 39.9883 0Z" fill="#FF9C99"/>
<path d="M22.1875 36.25V21.4062H27.1875L27.8906 15.625H22.1875V11.9531C22.1875 10.2344 22.6562 9.14062 25.0781 9.14062H28.125V3.98438C27.5781 3.90625 25.7812 3.75 23.6719 3.75C19.2188 3.75 16.25 6.40625 16.25 11.4062V15.625H11.25V21.4062H16.25V36.25H22.1875Z" fill="white"/>
</svg>
